<svg width="21" height="21" viewBox="0 0 21 21" fill="none" xmlns="http://www.w3.org/2000/svg">
<path d="M15.75 8.53125H14.4375C14.437 8.00926 14.2294 7.50881 13.8603 7.13971C13.4912 6.77061 12.9907 6.56302 12.4688 6.5625V5.25C13.3387 5.25104 14.1727 5.59708 14.7878 6.21221C15.4029 6.82733 15.749 7.66133 15.75 8.53125Z" fill="white"/>
<path d="M18.375 8.53125H17.0625C17.0611 7.31334 16.5767 6.14571 15.7155 5.28451C14.8543 4.42332 13.6867 3.93889 12.4688 3.9375V2.625C14.0347 2.62674 15.5359 3.24956 16.6432 4.35682C17.7504 5.46408 18.3733 6.96535 18.375 8.53125Z" fill="white"/>
<path d="M13.3436 14.0976L14.8136 12.6276C15.0104 12.4308 15.2606 12.296 15.5332 12.24C15.8058 12.184 16.0889 12.2092 16.3473 12.3126L18.1375 13.0292C18.4014 13.1348 18.6276 13.317 18.7869 13.5523C18.9462 13.7877 19.0314 14.0654 19.0314 14.3496V17.6052C19.0318 17.7987 18.9928 17.9903 18.9166 18.1682C18.8405 18.3461 18.7289 18.5066 18.5885 18.6398C18.4482 18.7731 18.2822 18.8763 18.1006 18.9431C17.919 19.01 17.7257 19.0391 17.5325 19.0286C4.98367 18.2477 2.44923 7.61907 1.9787 3.54901C1.95591 3.35003 1.9755 3.14848 2.03619 2.95762C2.09688 2.76676 2.1973 2.59091 2.33082 2.44163C2.46435 2.29236 2.62797 2.17305 2.81091 2.09155C2.99386 2.01004 3.19198 1.9682 3.39226 1.96876H6.59017C6.87437 1.96875 7.15205 2.05389 7.3874 2.21321C7.62275 2.37252 7.80497 2.5987 7.91054 2.86257L8.62651 4.65282C8.72984 4.91123 8.75506 5.19428 8.69907 5.4669C8.64308 5.73951 8.50833 5.98971 8.31151 6.18647L6.84151 7.65647C6.84151 7.65647 7.65657 13.3869 13.3436 14.0976Z" fill="white"/>
</svg>
