<svg width="17" height="23" viewBox="0 0 17 23" fill="none" xmlns="http://www.w3.org/2000/svg">
<path d="M8.32352 22.8887C8.32352 22.8887 16.647 14.7546 16.647 8.58325C16.647 6.30683 15.7701 4.12365 14.2091 2.51398C12.6482 0.904304 10.5311 0 8.32352 0C6.11599 0 3.99887 0.904304 2.4379 2.51398C0.87694 4.12365 3.28948e-08 6.30683 0 8.58325C0 14.7546 8.32352 22.8887 8.32352 22.8887ZM8.32352 12.8749C7.21975 12.8749 6.16119 12.4227 5.38071 11.6179C4.60023 10.8131 4.16176 9.72146 4.16176 8.58325C4.16176 7.44504 4.60023 6.35345 5.38071 5.54861C6.16119 4.74378 7.21975 4.29163 8.32352 4.29163C9.42729 4.29163 10.4859 4.74378 11.2663 5.54861C12.0468 6.35345 12.4853 7.44504 12.4853 8.58325C12.4853 9.72146 12.0468 10.8131 11.2663 11.6179C10.4859 12.4227 9.42729 12.8749 8.32352 12.8749Z" fill="white"/>
</svg>
