<svg width="17" height="17" viewBox="0 0 17 17" fill="none" xmlns="http://www.w3.org/2000/svg">
<path d="M8.4915 0C3.7995 0 0 3.808 0 8.5C0 13.192 3.7995 17 8.4915 17C13.192 17 17 13.192 17 8.5C17 3.808 13.192 0 8.4915 0ZM11.9 11.9C11.8214 11.9788 11.728 12.0413 11.6251 12.084C11.5223 12.1266 11.4121 12.1486 11.3008 12.1486C11.1894 12.1486 11.0792 12.1266 10.9764 12.084C10.8735 12.0413 10.7801 11.9788 10.7015 11.9L7.905 9.1035C7.82469 9.02478 7.76079 8.9309 7.71702 8.82731C7.67325 8.72371 7.65047 8.61246 7.65 8.5V5.1C7.65 4.6325 8.0325 4.25 8.5 4.25C8.9675 4.25 9.35 4.6325 9.35 5.1V8.1515L11.9 10.7015C12.2315 11.033 12.2315 11.5685 11.9 11.9Z" fill="white"/>
</svg>
