<svg width="304" height="87" viewBox="0 0 304 87" fill="none" xmlns="http://www.w3.org/2000/svg">
<path d="M116.929 52L115.681 44.512H109.825L108.673 52H104.497L109.921 20.128H115.729L121.153 52H116.929ZM110.401 40.816H115.105L112.849 26.848H112.657L110.401 40.816ZM136.037 52V24.016H130.277L129.941 33.568C129.653 41.632 128.965 46.896 127.877 49.36C127.365 50.48 126.741 51.2 126.005 51.52C125.269 51.84 124.389 52 123.365 52H122.693V48.064H123.125C123.573 48.064 123.941 48 124.229 47.872C124.517 47.712 124.773 47.344 124.997 46.768C125.253 46.064 125.493 44.688 125.717 42.64C125.973 40.592 126.181 37.568 126.341 33.568L126.821 20.128H140.309V52H136.037ZM147.896 52V24.016H142.568V20.128H157.592V24.016H152.168V52H147.896ZM168.117 52L166.869 44.512H161.013L159.861 52H155.685L161.109 20.128H166.917L172.341 52H168.117ZM161.589 40.816H166.293L164.037 26.848H163.845L161.589 40.816ZM182.472 19.504C180.552 19.504 178.984 18.88 177.768 17.632C176.584 16.352 175.992 14.432 175.992 11.872H179.016C179.08 13.568 179.384 14.816 179.928 15.616C180.504 16.384 181.352 16.768 182.472 16.768C183.56 16.768 184.392 16.384 184.968 15.616C185.544 14.816 185.848 13.568 185.88 11.872H189C189 14.464 188.392 16.384 187.176 17.632C185.96 18.88 184.392 19.504 182.472 19.504ZM186.312 52V29.008H186.12L178.728 52H174.264V20.128H178.44V41.632H178.632L185.832 20.128H190.44V52H186.312ZM210.157 52L205.597 38.224H205.405L203.101 42.736V52H198.733V20.128H203.101V34.432H203.293L210.205 20.128H214.573L208.573 32.752L214.525 52H210.157ZM228.117 52L226.869 44.512H221.013L219.861 52H215.685L221.109 20.128H226.917L232.341 52H228.117ZM221.589 40.816H226.293L224.037 26.848H223.845L221.589 40.816ZM238.584 39.328V52H234.264V20.128H243.144C245.352 20.128 246.904 20.688 247.8 21.808C248.728 22.928 249.192 24.496 249.192 26.512V32.944C249.192 34.96 248.728 36.528 247.8 37.648C246.904 38.768 245.352 39.328 243.144 39.328H238.584ZM238.584 35.584H242.28C243.304 35.584 244.024 35.296 244.44 34.72C244.888 34.144 245.112 33.328 245.112 32.272V26.992C245.112 26.032 244.888 25.296 244.44 24.784C244.024 24.272 243.304 24.016 242.28 24.016H238.584V35.584ZM263.937 60.016V52H250.689V60.016H247.425V48.064H248.001C248.513 48.064 248.897 47.984 249.153 47.824C249.441 47.6 249.697 47.248 249.921 46.768C250.145 46.288 250.337 45.536 250.497 44.512C250.689 43.456 250.833 42.064 250.929 40.336C251.057 38.576 251.169 36.32 251.265 33.568L251.745 20.128H265.233V48.064H267.201V60.016H263.937ZM260.961 24.016H255.201L254.865 33.568C254.801 34.848 254.737 36.208 254.673 37.648C254.609 39.056 254.513 40.432 254.385 41.776C254.257 43.088 254.097 44.304 253.905 45.424C253.713 46.512 253.473 47.392 253.185 48.064H260.961V24.016ZM280.992 52L279.744 44.512H273.888L272.736 52H268.56L273.984 20.128H279.792L285.216 52H280.992ZM274.464 40.816H279.168L276.912 26.848H276.72L274.464 40.816ZM298.179 52V37.024H291.459V52H287.139V20.128H291.459V33.184H298.179V20.128H302.451V52H298.179Z" fill="#1E1E1E"/>
<path d="M110.024 69.496H112.064V72.16C112.064 73.504 111.752 74.504 111.128 75.16C110.504 75.816 109.592 76.144 108.392 76.144C107.144 76.144 106.208 75.8 105.584 75.112C104.96 74.408 104.648 73.408 104.648 72.112V63.904C104.648 62.56 104.96 61.56 105.584 60.904C106.208 60.248 107.12 59.92 108.32 59.92C109.536 59.92 110.464 60.248 111.104 60.904C111.744 61.56 112.064 62.552 112.064 63.88V65.776H110.024V63.88C110.024 63.256 109.888 62.776 109.616 62.44C109.344 62.104 108.936 61.936 108.392 61.936C107.32 61.936 106.784 62.576 106.784 63.856V72.28C106.784 72.888 106.912 73.352 107.168 73.672C107.424 73.992 107.832 74.152 108.392 74.152C109.48 74.152 110.024 73.528 110.024 72.28V69.496ZM113.367 76V60.064H119.127V62.008H115.479V66.664H118.815V68.632H115.479V74.056H119.319V76H113.367ZM122.535 69.664V76H120.375V60.064H124.815C125.919 60.064 126.695 60.344 127.143 60.904C127.607 61.464 127.839 62.248 127.839 63.256V66.472C127.839 67.48 127.607 68.264 127.143 68.824C126.695 69.384 125.919 69.664 124.815 69.664H122.535ZM122.535 67.792H124.383C124.895 67.792 125.255 67.648 125.463 67.36C125.687 67.072 125.799 66.664 125.799 66.136V63.496C125.799 63.016 125.687 62.648 125.463 62.392C125.255 62.136 124.895 62.008 124.383 62.008H122.535V67.792ZM128.976 76V60.064H133.32C134.424 60.064 135.2 60.344 135.648 60.904C136.112 61.464 136.344 62.248 136.344 63.256V64.888C136.344 66.376 135.808 67.248 134.736 67.504V67.6C135.344 67.712 135.8 67.968 136.104 68.368C136.408 68.752 136.56 69.376 136.56 70.24V73.264C136.56 74.176 136.336 74.864 135.888 75.328C135.456 75.776 134.704 76 133.632 76H128.976ZM134.424 70.096C134.424 69.536 134.304 69.136 134.064 68.896C133.84 68.656 133.456 68.536 132.912 68.536H131.088V74.128H132.984C133.496 74.128 133.864 74 134.088 73.744C134.312 73.488 134.424 73.104 134.424 72.592V70.096ZM134.328 63.568C134.328 63.024 134.224 62.616 134.016 62.344C133.824 62.072 133.456 61.936 132.912 61.936H131.088V66.736H132.936C133.352 66.736 133.688 66.616 133.944 66.376C134.2 66.136 134.328 65.712 134.328 65.104V63.568ZM143.742 76V64.504H143.646L139.95 76H137.718V60.064H139.806V70.816H139.902L143.502 60.064H145.806V76H143.742ZM152.493 69.496H154.533V72.16C154.533 73.504 154.221 74.504 153.597 75.16C152.973 75.816 152.061 76.144 150.861 76.144C149.613 76.144 148.677 75.8 148.053 75.112C147.429 74.408 147.117 73.408 147.117 72.112V63.904C147.117 62.56 147.429 61.56 148.053 60.904C148.677 60.248 149.589 59.92 150.789 59.92C152.005 59.92 152.933 60.248 153.573 60.904C154.213 61.56 154.533 62.552 154.533 63.88V65.776H152.493V63.88C152.493 63.256 152.357 62.776 152.085 62.44C151.813 62.104 151.405 61.936 150.861 61.936C149.789 61.936 149.253 62.576 149.253 63.856V72.28C149.253 72.888 149.381 73.352 149.637 73.672C149.893 73.992 150.301 74.152 150.861 74.152C151.949 74.152 152.493 73.528 152.493 72.28V69.496Z" fill="#9E9E9E"/>
<path d="M0 51.8658V35.1359H8.78621C10.2426 31.8742 11.6267 28.8411 12.9236 25.775C13.0529 25.4711 12.7972 24.8362 12.5203 24.5533C10.6277 22.6306 8.68089 20.759 6.80029 18.9205C10.8564 14.8734 14.75 10.9919 18.779 6.97187C20.7649 9.07514 22.8532 11.2867 24.6525 13.1914C28.1369 11.8434 31.176 10.703 34.1729 9.4633C34.5551 9.30383 34.9282 8.62079 34.9432 8.16944C35.0215 5.86457 35.0124 3.55668 34.9643 1.25181C34.9493 0.355133 35.2201 -0.00594405 36.1498 7.39036e-05C40.9642 0.0301637 45.7786 0.0331726 50.5929 7.39036e-05C51.5317 -0.00594405 51.7935 0.355133 51.7754 1.24278C51.7303 3.59881 51.7243 5.95785 51.7965 8.31087C51.8085 8.71407 52.1937 9.31887 52.5548 9.46631C55.5577 10.694 58.5968 11.8344 62.0481 13.1674C63.8625 11.2687 65.9628 9.06913 67.9788 6.95683C71.9837 10.9889 75.8563 14.8885 79.8853 18.9416C78.0859 20.7078 76.2294 22.5975 74.2916 24.3999C73.5935 25.0498 73.6116 25.5403 74.0479 26.3166C74.8513 27.7458 75.5253 29.2503 76.3708 30.9624C69.4803 33.6013 62.7733 36.171 55.9038 38.8038C54.0562 34.6484 51.0924 31.7718 46.6873 30.6104C43.9431 29.8882 41.22 30.0658 38.566 31.0888C33.0927 33.2041 29.8159 38.4337 30.1409 44.5118C30.4268 49.8167 34.516 54.7514 39.881 56.2619C46.1487 58.0252 50.972 55.636 56.0121 48.1738C62.692 50.7284 69.408 53.2981 76.3437 55.949C75.3869 57.9439 74.5052 59.7764 73.4852 61.9007C75.6035 63.9017 77.8151 65.9899 79.9756 68.03C75.9014 72.1102 72.0138 75.9978 68.0781 79.9425C66.0199 77.8363 63.9257 75.6909 62.0481 73.7681C58.5968 75.0921 55.4735 76.2626 52.3863 77.5173C52.0763 77.6437 51.8055 78.2575 51.7935 78.6517C51.7363 80.8573 51.7694 83.0629 51.7604 85.2714C51.7604 85.7589 51.7153 86.2463 51.6822 86.9203C50.4786 86.9203 49.3893 86.9203 48.3001 86.9203C44.3373 86.9203 40.3774 86.8873 36.4146 86.9414C35.3073 86.9565 34.9131 86.6405 34.9553 85.4971C35.0395 83.2434 35.0124 80.9836 34.9462 78.7299C34.9342 78.3026 34.6273 77.6407 34.2843 77.4993C31.2392 76.2505 28.158 75.0951 24.7398 73.7802C22.9314 75.7089 20.8793 77.8964 18.8783 80.0298C14.8433 75.9496 10.9858 72.047 6.98082 67.9969C9.00887 66.1404 11.2476 64.0943 13.2275 62.2829C11.6598 58.5126 10.3238 55.293 8.90055 51.8628H0V51.8658Z" fill="#01359A"/>
<path d="M77.6405 35.1691H86.7336V51.7275H77.6165C77.8481 48.9682 78.2483 46.2421 78.2544 43.513C78.2604 40.7838 77.8692 38.0547 77.6405 35.1691Z" fill="#01359A"/>
</svg>
